<svg width="22" height="22" viewBox="0 0 22 22" fill="none" xmlns="http://www.w3.org/2000/svg">
<path d="M11 21C16.5228 21 21 16.5228 21 11C21 5.47715 16.5228 1 11 1C5.47715 1 1 5.47715 1 11C1 16.5228 5.47715 21 11 21Z" stroke="#BCBCBC" stroke-linecap="round" stroke-linejoin="round"/>
<path d="M8.09009 7.99996C8.32519 7.33163 8.78924 6.76807 9.40004 6.40909C10.0108 6.05012 10.729 5.9189 11.4273 6.03867C12.1255 6.15844 12.7589 6.52148 13.2152 7.06349C13.6714 7.60549 13.9211 8.29148 13.9201 8.99996C13.9201 11 10.9201 12 10.9201 12" stroke="#BCBCBC" stroke-linecap="round" stroke-linejoin="round"/>
<path d="M11 16H11.01" stroke="#BCBCBC" stroke-linecap="round" stroke-linejoin="round"/>
</svg>
