<svg width="339" height="170" viewBox="0 0 339 170" fill="none" xmlns="http://www.w3.org/2000/svg">
<path d="M110.833 138.793C110.833 140.355 110.447 141.819 109.675 143.185C108.931 144.552 107.744 145.653 106.114 146.49C104.513 147.327 102.483 147.745 100.024 147.745H95.0051V158.956H89V129.757H100.024C102.34 129.757 104.313 130.147 105.943 130.928C107.573 131.709 108.788 132.783 109.589 134.149C110.418 135.516 110.833 137.064 110.833 138.793ZM99.7662 143.018C101.425 143.018 102.654 142.655 103.455 141.93C104.256 141.177 104.656 140.131 104.656 138.793C104.656 135.948 103.026 134.526 99.7662 134.526H95.0051V143.018H99.7662Z" fill="#003366"/>
<path d="M121.101 128V158.956H115.096V128H121.101Z" fill="#003366"/>
<path d="M125.49 147.285C125.49 144.942 125.962 142.865 126.906 141.052C127.878 139.239 129.179 137.845 130.809 136.868C132.467 135.892 134.312 135.404 136.342 135.404C138.115 135.404 139.659 135.753 140.975 136.45C142.319 137.147 143.391 138.026 144.192 139.086V135.781H150.24V158.956H144.192V155.568C143.419 156.655 142.347 157.562 140.975 158.287C139.631 158.984 138.072 159.333 136.299 159.333C134.298 159.333 132.467 158.831 130.809 157.827C129.179 156.823 127.878 155.414 126.906 153.602C125.962 151.761 125.49 149.655 125.49 147.285ZM144.192 147.368C144.192 145.946 143.906 144.733 143.334 143.729C142.762 142.697 141.99 141.916 141.017 141.386C140.045 140.829 139.001 140.55 137.886 140.55C136.771 140.55 135.742 140.815 134.798 141.345C133.854 141.874 133.082 142.655 132.482 143.687C131.91 144.691 131.624 145.89 131.624 147.285C131.624 148.679 131.91 149.906 132.482 150.966C133.082 151.998 133.854 152.793 134.798 153.351C135.77 153.908 136.8 154.187 137.886 154.187C139.001 154.187 140.045 153.922 141.017 153.392C141.99 152.835 142.762 152.054 143.334 151.05C143.906 150.018 144.192 148.791 144.192 147.368Z" fill="#003366"/>
<path d="M169.273 135.446C172.104 135.446 174.391 136.325 176.136 138.082C177.88 139.811 178.752 142.237 178.752 145.361V158.956H172.747V146.155C172.747 144.315 172.275 142.906 171.332 141.93C170.388 140.926 169.101 140.424 167.471 140.424C165.813 140.424 164.497 140.926 163.525 141.93C162.581 142.906 162.11 144.315 162.11 146.155V158.956H156.104V135.781H162.11V138.667C162.91 137.663 163.925 136.882 165.155 136.325C166.413 135.739 167.786 135.446 169.273 135.446Z" fill="#003366"/>
<path d="M197.631 135.446C200.462 135.446 202.749 136.325 204.494 138.082C206.238 139.811 207.11 142.237 207.11 145.361V158.956H201.105V146.155C201.105 144.315 200.633 142.906 199.69 141.93C198.746 140.926 197.459 140.424 195.829 140.424C194.171 140.424 192.855 140.926 191.883 141.93C190.94 142.906 190.468 144.315 190.468 146.155V158.956H184.463V135.781H190.468V138.667C191.268 137.663 192.284 136.882 193.513 136.325C194.771 135.739 196.144 135.446 197.631 135.446Z" fill="#003366"/>
<path d="M234.911 146.866C234.911 147.703 234.854 148.456 234.739 149.125H217.367C217.51 150.799 218.111 152.11 219.169 153.058C220.227 154.006 221.528 154.48 223.072 154.48C225.303 154.48 226.89 153.546 227.833 151.677H234.31C233.624 153.908 232.309 155.749 230.364 157.199C228.42 158.621 226.032 159.333 223.201 159.333C220.913 159.333 218.854 158.845 217.024 157.868C215.223 156.865 213.807 155.456 212.778 153.643C211.777 151.831 211.277 149.739 211.277 147.368C211.277 144.97 211.777 142.865 212.778 141.052C213.779 139.239 215.18 137.845 216.981 136.868C218.783 135.892 220.856 135.404 223.201 135.404C225.46 135.404 227.476 135.878 229.249 136.827C231.05 137.775 232.437 139.127 233.41 140.884C234.41 142.614 234.911 144.608 234.911 146.866ZM228.691 145.193C228.663 143.687 228.105 142.488 227.018 141.596C225.932 140.675 224.602 140.215 223.029 140.215C221.542 140.215 220.284 140.661 219.255 141.554C218.254 142.418 217.639 143.631 217.41 145.193H228.691Z" fill="#003366"/>
<path d="M245.299 139.378C246.071 138.151 247.072 137.189 248.302 136.492C249.56 135.795 250.99 135.446 252.591 135.446V141.596H251.004C249.117 141.596 247.687 142.028 246.714 142.892C245.771 143.757 245.299 145.263 245.299 147.41V158.956H239.294V135.781H245.299V139.378Z" fill="#003366"/>
<path d="M272.878 153.392H260.953L258.98 158.956H252.675L263.441 129.715H270.433L281.199 158.956H274.851L272.878 153.392ZM271.248 148.707L266.916 136.492L262.583 148.707H271.248Z" fill="#003366"/>
<path d="M291.228 139.127C292 138.068 293.058 137.189 294.402 136.492C295.775 135.767 297.333 135.404 299.078 135.404C301.108 135.404 302.938 135.892 304.568 136.868C306.227 137.845 307.528 139.239 308.471 141.052C309.444 142.837 309.93 144.914 309.93 147.285C309.93 149.655 309.444 151.761 308.471 153.602C307.528 155.414 306.227 156.823 304.568 157.827C302.938 158.831 301.108 159.333 299.078 159.333C297.333 159.333 295.789 158.984 294.445 158.287C293.13 157.59 292.058 156.711 291.228 155.651V170H285.223V135.781H291.228V139.127ZM303.796 147.285C303.796 145.89 303.496 144.691 302.895 143.687C302.323 142.655 301.551 141.874 300.579 141.345C299.635 140.815 298.606 140.55 297.491 140.55C296.404 140.55 295.375 140.829 294.402 141.386C293.459 141.916 292.687 142.697 292.086 143.729C291.514 144.761 291.228 145.974 291.228 147.368C291.228 148.763 291.514 149.976 292.086 151.008C292.687 152.04 293.459 152.835 294.402 153.392C295.375 153.922 296.404 154.187 297.491 154.187C298.606 154.187 299.635 153.908 300.579 153.351C301.551 152.793 302.323 151.998 302.895 150.966C303.496 149.934 303.796 148.707 303.796 147.285Z" fill="#003366"/>
<path d="M320.299 139.127C321.071 138.068 322.129 137.189 323.473 136.492C324.845 135.767 326.404 135.404 328.148 135.404C330.178 135.404 332.008 135.892 333.638 136.868C335.297 137.845 336.598 139.239 337.542 141.052C338.514 142.837 339 144.914 339 147.285C339 149.655 338.514 151.761 337.542 153.602C336.598 155.414 335.297 156.823 333.638 157.827C332.008 158.831 330.178 159.333 328.148 159.333C326.404 159.333 324.86 158.984 323.516 158.287C322.2 157.59 321.128 156.711 320.299 155.651V170H314.294V135.781H320.299V139.127ZM332.866 147.285C332.866 145.89 332.566 144.691 331.966 143.687C331.394 142.655 330.622 141.874 329.649 141.345C328.706 140.815 327.676 140.55 326.561 140.55C325.474 140.55 324.445 140.829 323.473 141.386C322.529 141.916 321.757 142.697 321.156 143.729C320.585 144.761 320.299 145.974 320.299 147.368C320.299 148.763 320.585 149.976 321.156 151.008C321.757 152.04 322.529 152.835 323.473 153.392C324.445 153.922 325.474 154.187 326.561 154.187C327.676 154.187 328.706 153.908 329.649 153.351C330.622 152.793 331.394 151.998 331.966 150.966C332.566 149.934 332.866 148.707 332.866 147.285Z" fill="#003366"/>
<path fill-rule="evenodd" clip-rule="evenodd" d="M185.608 100.798C176.083 108.353 164.065 112.859 151.003 112.859C140.068 112.859 129.866 109.701 121.244 104.24L130.601 84.2854C136.357 88.6887 143.534 91.302 151.318 91.302C170.256 91.302 185.608 75.8311 185.608 56.7467C185.608 37.6623 170.256 22.1914 151.318 22.1914C141.049 22.1914 131.835 26.7398 125.551 33.9463C122.077 36.7962 119.935 43.2525 116.948 51.1581C113.135 60.5929 109.556 72.0363 106.466 81.1777C104.967 85.6115 101.915 90.8207 101.158 91.9461C91.1003 106.915 75.2849 112.859 55.997 112.859C42.9348 112.859 30.9173 108.353 21.3921 100.798L21.3921 149H0L3.98783e-06 57.0638H0.0034592C0.00115508 56.8527 4.00616e-06 56.6413 4.01534e-06 56.4297C5.36717e-06 25.2644 25.0707 -9.15527e-05 55.997 -9.15527e-05C67.0035 -9.15527e-05 77.2683 3.19994 85.9253 8.72712L76.5055 28.8162C70.841 24.6501 63.8612 22.1914 56.3116 22.1914C37.3736 22.1914 22.0213 37.6623 22.0213 56.7467C22.0213 75.8311 37.3736 91.302 56.3116 91.302C67.409 91.302 77.2753 85.9895 83.5425 77.7505C88.3124 72.393 92.1538 60.3394 95.9862 48.3138C98.7755 39.5614 98.9522 33.9463 105.366 24.4604C115.445 9.55433 131.754 -8.49975e-05 151.003 -8.73678e-05C181.929 -8.73678e-05 207 25.2644 207 56.4297C207 56.6413 206.999 56.8527 206.997 57.0637H207V126.174L185.608 126.174V100.798Z" fill="#003366"/>
<path fill-rule="evenodd" clip-rule="evenodd" d="M187.473 96.94V124.312L205.135 124.312V58.9262H205.111L205.132 57.0434C205.134 56.8391 205.135 56.6345 205.135 56.4297C205.135 26.2772 180.884 1.86241 151.003 1.86241C132.413 1.86241 116.667 11.0758 106.912 25.5027C102.316 32.299 101.095 36.8677 99.6018 42.4546C99.0758 44.4224 98.5161 46.5165 97.7632 48.8787L97.7513 48.9163C95.8438 54.9018 93.9101 60.9692 91.8521 66.2124C89.8208 71.3877 87.5853 75.9867 84.9846 78.9335C78.3802 87.5809 67.9952 93.1645 56.3116 93.1645C36.3279 93.1645 20.1564 76.8439 20.1564 56.7467C20.1564 36.6495 36.3279 20.3289 56.3116 20.3289C63.4655 20.3289 70.1371 22.4235 75.7502 26.0352L83.5322 9.43901C75.4655 4.62504 66.0534 1.86241 55.997 1.86241C26.1164 1.86241 1.86487 26.2772 1.86487 56.4297C1.86487 56.6346 1.86598 56.8392 1.86821 57.0435L1.88877 58.9263H1.86487L1.86486 147.137H19.5272L19.5272 96.94L22.5519 99.3391C31.7603 106.643 43.3724 110.997 55.997 110.997C74.8879 110.997 90.0069 105.2 99.6099 90.9083C100.309 89.8674 103.27 84.809 104.699 80.5819C105.412 78.4727 106.155 76.2304 106.922 73.9116C109.456 66.2577 112.266 57.77 115.21 50.4806C115.505 49.701 115.793 48.93 116.077 48.1712C117.21 45.1424 118.27 42.3069 119.368 39.8872C120.707 36.9386 122.22 34.3237 124.243 32.6104C130.862 25.0826 140.538 20.3289 151.318 20.3289C171.301 20.3289 187.473 36.6495 187.473 56.7467C187.473 76.8439 171.301 93.1645 151.318 93.1645C143.933 93.1645 137.062 90.9325 131.339 87.104L123.64 103.523C131.668 108.273 141.018 110.997 151.003 110.997C163.628 110.997 175.24 106.643 184.448 99.3391L187.473 96.94ZM121.244 104.24L130.601 84.2854C131.103 84.6695 131.616 85.0401 132.14 85.3964C137.614 89.1248 144.213 91.302 151.318 91.302C170.256 91.302 185.608 75.8311 185.608 56.7467C185.608 37.6623 170.256 22.1914 151.318 22.1914C141.049 22.1914 131.835 26.7397 125.551 33.9463C122.431 36.506 120.385 41.9749 117.836 48.7901C117.547 49.5629 117.252 50.353 116.948 51.1581C114.025 58.3904 111.24 66.8029 108.707 74.4542C107.936 76.7842 107.188 79.0437 106.466 81.1777C104.967 85.6115 101.915 90.8207 101.158 91.9461C91.1003 106.915 75.2849 112.859 55.997 112.859C43.7734 112.859 32.4645 108.913 23.257 102.214C22.6253 101.755 22.0036 101.283 21.3921 100.798L21.3921 149H0L3.98783e-06 57.0638H0.0034592C0.00115508 56.8527 4.00616e-06 56.6413 4.01534e-06 56.4297C4.02451e-06 56.2183 0.00115775 56.0071 0.0034592 55.7963C0.340419 24.9228 25.2805 -9.15527e-05 55.997 -9.15527e-05C67.0035 -9.15527e-05 77.2683 3.19994 85.9253 8.72712L76.5055 28.8162C75.9979 28.4429 75.4799 28.0833 74.9518 27.738C69.5857 24.2292 63.1848 22.1914 56.3116 22.1914C37.3736 22.1914 22.0213 37.6623 22.0213 56.7467C22.0213 75.8311 37.3736 91.302 56.3116 91.302C67.409 91.302 77.2753 85.9895 83.5425 77.7505C88.3124 72.393 92.1538 60.3395 95.9862 48.3139C96.6956 46.088 97.236 44.065 97.753 42.1297C99.2688 36.4551 100.583 31.5339 105.366 24.4604C115.445 9.55433 131.754 -8.49975e-05 151.003 -8.73678e-05C181.719 -8.73678e-05 206.659 24.922 206.997 55.7948C206.999 56.0061 207 56.2178 207 56.4297C207 56.6413 206.999 56.8527 206.997 57.0637H207V126.174L185.608 126.174V100.798C184.996 101.283 184.375 101.755 183.743 102.214C174.535 108.913 163.227 112.859 151.003 112.859C140.068 112.859 129.866 109.701 121.244 104.24Z" fill="#003366"/>
</svg>
